<svg width="49" height="54" viewBox="0 0 49 54" fill="none" xmlns="http://www.w3.org/2000/svg">
<path d="M35.6212 26.4503C36.5308 26.6608 37.513 26.8413 38.5729 27C37.513 27.1587 36.5308 27.3392 35.6212 27.5497C32.3976 28.2957 29.972 29.4426 28.196 31.432C26.4324 33.4077 25.4172 36.0952 24.7537 39.6922C24.597 40.5418 24.4588 41.4492 24.3351 42.4181C24.2111 41.4491 24.0726 40.5417 23.9157 39.692C23.2513 36.0949 22.2354 33.4076 20.4714 31.432C18.695 29.4425 16.2693 28.2957 13.0456 27.5497C12.136 27.3392 11.1537 27.1587 10.0939 27C11.1537 26.8413 12.136 26.6608 13.0456 26.4503C16.2693 25.7043 18.695 24.5575 20.4714 22.5681C22.2354 20.5924 23.2513 17.9051 23.9157 14.308C24.0726 13.4583 24.2111 12.5509 24.3351 11.5819C24.4588 12.5508 24.597 13.4582 24.7537 14.3078C25.4172 17.9048 26.4324 20.5923 28.196 22.568C29.972 24.5574 32.3976 25.7043 35.6212 26.4503Z" stroke="#1D3A58" stroke-width="2"/>
</svg>
